%TF.GenerationSoftware,KiCad,Pcbnew,(5.1.7)-1*%
%TF.CreationDate,2020-12-06T23:53:20-03:00*%
%TF.ProjectId,PrimerProyecto,5072696d-6572-4507-926f-796563746f2e,rev?*%
%TF.SameCoordinates,Original*%
%TF.FileFunction,Legend,Bot*%
%TF.FilePolarity,Positive*%
%FSLAX46Y46*%
G04 Gerber Fmt 4.6, Leading zero omitted, Abs format (unit mm)*
G04 Created by KiCad (PCBNEW (5.1.7)-1) date 2020-12-06 23:53:20*
%MOMM*%
%LPD*%
G01*
G04 APERTURE LIST*
%ADD10C,0.300000*%
G04 APERTURE END LIST*
D10*
X135450952Y-77934285D02*
X135512857Y-77996190D01*
X135698571Y-78058095D01*
X135822380Y-78058095D01*
X136008095Y-77996190D01*
X136131904Y-77872380D01*
X136193809Y-77748571D01*
X136255714Y-77500952D01*
X136255714Y-77315238D01*
X136193809Y-77067619D01*
X136131904Y-76943809D01*
X136008095Y-76820000D01*
X135822380Y-76758095D01*
X135698571Y-76758095D01*
X135512857Y-76820000D01*
X135450952Y-76881904D01*
X134336666Y-78058095D02*
X134336666Y-77377142D01*
X134398571Y-77253333D01*
X134522380Y-77191428D01*
X134770000Y-77191428D01*
X134893809Y-77253333D01*
X134336666Y-77996190D02*
X134460476Y-78058095D01*
X134770000Y-78058095D01*
X134893809Y-77996190D01*
X134955714Y-77872380D01*
X134955714Y-77748571D01*
X134893809Y-77624761D01*
X134770000Y-77562857D01*
X134460476Y-77562857D01*
X134336666Y-77500952D01*
X133717619Y-77191428D02*
X133717619Y-78058095D01*
X133717619Y-77315238D02*
X133655714Y-77253333D01*
X133531904Y-77191428D01*
X133346190Y-77191428D01*
X133222380Y-77253333D01*
X133160476Y-77377142D01*
X133160476Y-78058095D01*
X132479523Y-76696190D02*
X132665238Y-76881904D01*
X132231904Y-77191428D02*
X131736666Y-77191428D01*
X132046190Y-76758095D02*
X132046190Y-77872380D01*
X131984285Y-77996190D01*
X131860476Y-78058095D01*
X131736666Y-78058095D01*
X130498571Y-77191428D02*
X130003333Y-77191428D01*
X130312857Y-76758095D02*
X130312857Y-77872380D01*
X130250952Y-77996190D01*
X130127142Y-78058095D01*
X130003333Y-78058095D01*
X129384285Y-78058095D02*
X129508095Y-77996190D01*
X129570000Y-77934285D01*
X129631904Y-77810476D01*
X129631904Y-77439047D01*
X129570000Y-77315238D01*
X129508095Y-77253333D01*
X129384285Y-77191428D01*
X129198571Y-77191428D01*
X129074761Y-77253333D01*
X129012857Y-77315238D01*
X128950952Y-77439047D01*
X128950952Y-77810476D01*
X129012857Y-77934285D01*
X129074761Y-77996190D01*
X129198571Y-78058095D01*
X129384285Y-78058095D01*
X127836666Y-77191428D02*
X127836666Y-78058095D01*
X128393809Y-77191428D02*
X128393809Y-77872380D01*
X128331904Y-77996190D01*
X128208095Y-78058095D01*
X128022380Y-78058095D01*
X127898571Y-77996190D01*
X127836666Y-77934285D01*
X126660476Y-77996190D02*
X126784285Y-78058095D01*
X127031904Y-78058095D01*
X127155714Y-77996190D01*
X127217619Y-77934285D01*
X127279523Y-77810476D01*
X127279523Y-77439047D01*
X127217619Y-77315238D01*
X127155714Y-77253333D01*
X127031904Y-77191428D01*
X126784285Y-77191428D01*
X126660476Y-77253333D01*
X126103333Y-78058095D02*
X126103333Y-76758095D01*
X125546190Y-78058095D02*
X125546190Y-77377142D01*
X125608095Y-77253333D01*
X125731904Y-77191428D01*
X125917619Y-77191428D01*
X126041428Y-77253333D01*
X126103333Y-77315238D01*
X124122380Y-77191428D02*
X123627142Y-77191428D01*
X123936666Y-76758095D02*
X123936666Y-77872380D01*
X123874761Y-77996190D01*
X123750952Y-78058095D01*
X123627142Y-78058095D01*
X123193809Y-78058095D02*
X123193809Y-76758095D01*
X122636666Y-78058095D02*
X122636666Y-77377142D01*
X122698571Y-77253333D01*
X122822380Y-77191428D01*
X123008095Y-77191428D01*
X123131904Y-77253333D01*
X123193809Y-77315238D01*
X122017619Y-78058095D02*
X122017619Y-77191428D01*
X122017619Y-76758095D02*
X122079523Y-76820000D01*
X122017619Y-76881904D01*
X121955714Y-76820000D01*
X122017619Y-76758095D01*
X122017619Y-76881904D01*
X121460476Y-77996190D02*
X121336666Y-78058095D01*
X121089047Y-78058095D01*
X120965238Y-77996190D01*
X120903333Y-77872380D01*
X120903333Y-77810476D01*
X120965238Y-77686666D01*
X121089047Y-77624761D01*
X121274761Y-77624761D01*
X121398571Y-77562857D01*
X121460476Y-77439047D01*
X121460476Y-77377142D01*
X121398571Y-77253333D01*
X121274761Y-77191428D01*
X121089047Y-77191428D01*
X120965238Y-77253333D01*
X120346190Y-77934285D02*
X120284285Y-77996190D01*
X120346190Y-78058095D01*
X120408095Y-77996190D01*
X120346190Y-77934285D01*
X120346190Y-78058095D01*
X120346190Y-77562857D02*
X120408095Y-76820000D01*
X120346190Y-76758095D01*
X120284285Y-76820000D01*
X120346190Y-77562857D01*
X120346190Y-76758095D01*
M02*
