%TF.GenerationSoftware,KiCad,Pcbnew,(5.1.7)-1*%
%TF.CreationDate,2020-12-06T23:53:20-03:00*%
%TF.ProjectId,PrimerProyecto,5072696d-6572-4507-926f-796563746f2e,rev?*%
%TF.SameCoordinates,Original*%
%TF.FileFunction,Legend,Top*%
%TF.FilePolarity,Positive*%
%FSLAX46Y46*%
G04 Gerber Fmt 4.6, Leading zero omitted, Abs format (unit mm)*
G04 Created by KiCad (PCBNEW (5.1.7)-1) date 2020-12-06 23:53:20*
%MOMM*%
%LPD*%
G01*
G04 APERTURE LIST*
%ADD10C,0.150000*%
%ADD11C,0.120000*%
G04 APERTURE END LIST*
D10*
X118865238Y-62682380D02*
X118865238Y-61682380D01*
X119770000Y-62015714D02*
X119770000Y-62825238D01*
X119722380Y-62920476D01*
X119674761Y-62968095D01*
X119579523Y-63015714D01*
X119436666Y-63015714D01*
X119341428Y-62968095D01*
X119770000Y-62634761D02*
X119674761Y-62682380D01*
X119484285Y-62682380D01*
X119389047Y-62634761D01*
X119341428Y-62587142D01*
X119293809Y-62491904D01*
X119293809Y-62206190D01*
X119341428Y-62110952D01*
X119389047Y-62063333D01*
X119484285Y-62015714D01*
X119674761Y-62015714D01*
X119770000Y-62063333D01*
X120246190Y-62015714D02*
X120246190Y-62682380D01*
X120246190Y-62110952D02*
X120293809Y-62063333D01*
X120389047Y-62015714D01*
X120531904Y-62015714D01*
X120627142Y-62063333D01*
X120674761Y-62158571D01*
X120674761Y-62682380D01*
X121579523Y-62682380D02*
X121579523Y-62158571D01*
X121531904Y-62063333D01*
X121436666Y-62015714D01*
X121246190Y-62015714D01*
X121150952Y-62063333D01*
X121579523Y-62634761D02*
X121484285Y-62682380D01*
X121246190Y-62682380D01*
X121150952Y-62634761D01*
X121103333Y-62539523D01*
X121103333Y-62444285D01*
X121150952Y-62349047D01*
X121246190Y-62301428D01*
X121484285Y-62301428D01*
X121579523Y-62253809D01*
X122484285Y-62634761D02*
X122389047Y-62682380D01*
X122198571Y-62682380D01*
X122103333Y-62634761D01*
X122055714Y-62587142D01*
X122008095Y-62491904D01*
X122008095Y-62206190D01*
X122055714Y-62110952D01*
X122103333Y-62063333D01*
X122198571Y-62015714D01*
X122389047Y-62015714D01*
X122484285Y-62063333D01*
X122912857Y-62682380D02*
X122912857Y-62015714D01*
X122912857Y-61682380D02*
X122865238Y-61730000D01*
X122912857Y-61777619D01*
X122960476Y-61730000D01*
X122912857Y-61682380D01*
X122912857Y-61777619D01*
X123531904Y-62682380D02*
X123436666Y-62634761D01*
X123389047Y-62587142D01*
X123341428Y-62491904D01*
X123341428Y-62206190D01*
X123389047Y-62110952D01*
X123436666Y-62063333D01*
X123531904Y-62015714D01*
X123674761Y-62015714D01*
X123770000Y-62063333D01*
X123817619Y-62110952D01*
X123865238Y-62206190D01*
X123865238Y-62491904D01*
X123817619Y-62587142D01*
X123770000Y-62634761D01*
X123674761Y-62682380D01*
X123531904Y-62682380D01*
X125008095Y-62634761D02*
X125150952Y-62682380D01*
X125389047Y-62682380D01*
X125484285Y-62634761D01*
X125531904Y-62587142D01*
X125579523Y-62491904D01*
X125579523Y-62396666D01*
X125531904Y-62301428D01*
X125484285Y-62253809D01*
X125389047Y-62206190D01*
X125198571Y-62158571D01*
X125103333Y-62110952D01*
X125055714Y-62063333D01*
X125008095Y-61968095D01*
X125008095Y-61872857D01*
X125055714Y-61777619D01*
X125103333Y-61730000D01*
X125198571Y-61682380D01*
X125436666Y-61682380D01*
X125579523Y-61730000D01*
X126436666Y-62682380D02*
X126436666Y-62158571D01*
X126389047Y-62063333D01*
X126293809Y-62015714D01*
X126103333Y-62015714D01*
X126008095Y-62063333D01*
X126436666Y-62634761D02*
X126341428Y-62682380D01*
X126103333Y-62682380D01*
X126008095Y-62634761D01*
X125960476Y-62539523D01*
X125960476Y-62444285D01*
X126008095Y-62349047D01*
X126103333Y-62301428D01*
X126341428Y-62301428D01*
X126436666Y-62253809D01*
X127341428Y-62634761D02*
X127246190Y-62682380D01*
X127055714Y-62682380D01*
X126960476Y-62634761D01*
X126912857Y-62587142D01*
X126865238Y-62491904D01*
X126865238Y-62206190D01*
X126912857Y-62110952D01*
X126960476Y-62063333D01*
X127055714Y-62015714D01*
X127246190Y-62015714D01*
X127341428Y-62063333D01*
X128198571Y-62634761D02*
X128103333Y-62682380D01*
X127912857Y-62682380D01*
X127817619Y-62634761D01*
X127770000Y-62587142D01*
X127722380Y-62491904D01*
X127722380Y-62206190D01*
X127770000Y-62110952D01*
X127817619Y-62063333D01*
X127912857Y-62015714D01*
X128103333Y-62015714D01*
X128198571Y-62063333D01*
X128770000Y-62682380D02*
X128674761Y-62634761D01*
X128627142Y-62587142D01*
X128579523Y-62491904D01*
X128579523Y-62206190D01*
X128627142Y-62110952D01*
X128674761Y-62063333D01*
X128770000Y-62015714D01*
X128912857Y-62015714D01*
X129008095Y-62063333D01*
X129055714Y-62110952D01*
X129103333Y-62206190D01*
X129103333Y-62491904D01*
X129055714Y-62587142D01*
X129008095Y-62634761D01*
X128912857Y-62682380D01*
X128770000Y-62682380D01*
X129531904Y-62682380D02*
X129531904Y-62015714D01*
X129531904Y-62110952D02*
X129579523Y-62063333D01*
X129674761Y-62015714D01*
X129817619Y-62015714D01*
X129912857Y-62063333D01*
X129960476Y-62158571D01*
X129960476Y-62682380D01*
X129960476Y-62158571D02*
X130008095Y-62063333D01*
X130103333Y-62015714D01*
X130246190Y-62015714D01*
X130341428Y-62063333D01*
X130389047Y-62158571D01*
X130389047Y-62682380D01*
X131293809Y-62682380D02*
X131293809Y-62158571D01*
X131246190Y-62063333D01*
X131150952Y-62015714D01*
X130960476Y-62015714D01*
X130865238Y-62063333D01*
X131293809Y-62634761D02*
X131198571Y-62682380D01*
X130960476Y-62682380D01*
X130865238Y-62634761D01*
X130817619Y-62539523D01*
X130817619Y-62444285D01*
X130865238Y-62349047D01*
X130960476Y-62301428D01*
X131198571Y-62301428D01*
X131293809Y-62253809D01*
X131770000Y-62015714D02*
X131770000Y-62682380D01*
X131770000Y-62110952D02*
X131817619Y-62063333D01*
X131912857Y-62015714D01*
X132055714Y-62015714D01*
X132150952Y-62063333D01*
X132198571Y-62158571D01*
X132198571Y-62682380D01*
X132817619Y-62682380D02*
X132722380Y-62634761D01*
X132674761Y-62587142D01*
X132627142Y-62491904D01*
X132627142Y-62206190D01*
X132674761Y-62110952D01*
X132722380Y-62063333D01*
X132817619Y-62015714D01*
X132960476Y-62015714D01*
X133055714Y-62063333D01*
X133103333Y-62110952D01*
X133150952Y-62206190D01*
X133150952Y-62491904D01*
X133103333Y-62587142D01*
X133055714Y-62634761D01*
X132960476Y-62682380D01*
X132817619Y-62682380D01*
X134293809Y-61777619D02*
X134341428Y-61730000D01*
X134436666Y-61682380D01*
X134674761Y-61682380D01*
X134770000Y-61730000D01*
X134817619Y-61777619D01*
X134865238Y-61872857D01*
X134865238Y-61968095D01*
X134817619Y-62110952D01*
X134246190Y-62682380D01*
X134865238Y-62682380D01*
X135484285Y-61682380D02*
X135579523Y-61682380D01*
X135674761Y-61730000D01*
X135722380Y-61777619D01*
X135770000Y-61872857D01*
X135817619Y-62063333D01*
X135817619Y-62301428D01*
X135770000Y-62491904D01*
X135722380Y-62587142D01*
X135674761Y-62634761D01*
X135579523Y-62682380D01*
X135484285Y-62682380D01*
X135389047Y-62634761D01*
X135341428Y-62587142D01*
X135293809Y-62491904D01*
X135246190Y-62301428D01*
X135246190Y-62063333D01*
X135293809Y-61872857D01*
X135341428Y-61777619D01*
X135389047Y-61730000D01*
X135484285Y-61682380D01*
X136198571Y-61777619D02*
X136246190Y-61730000D01*
X136341428Y-61682380D01*
X136579523Y-61682380D01*
X136674761Y-61730000D01*
X136722380Y-61777619D01*
X136770000Y-61872857D01*
X136770000Y-61968095D01*
X136722380Y-62110952D01*
X136150952Y-62682380D01*
X136770000Y-62682380D01*
X137389047Y-61682380D02*
X137484285Y-61682380D01*
X137579523Y-61730000D01*
X137627142Y-61777619D01*
X137674761Y-61872857D01*
X137722380Y-62063333D01*
X137722380Y-62301428D01*
X137674761Y-62491904D01*
X137627142Y-62587142D01*
X137579523Y-62634761D01*
X137484285Y-62682380D01*
X137389047Y-62682380D01*
X137293809Y-62634761D01*
X137246190Y-62587142D01*
X137198571Y-62491904D01*
X137150952Y-62301428D01*
X137150952Y-62063333D01*
X137198571Y-61872857D01*
X137246190Y-61777619D01*
X137293809Y-61730000D01*
X137389047Y-61682380D01*
D11*
%TO.C,Q2*%
X113770000Y-102180000D02*
X117370000Y-102180000D01*
X113731522Y-102168478D02*
G75*
G02*
X115570000Y-97730000I1838478J1838478D01*
G01*
X117408478Y-102168478D02*
G75*
G03*
X115570000Y-97730000I-1838478J1838478D01*
G01*
%TO.C,BT1*%
X142580000Y-76000000D02*
X138962000Y-76000000D01*
X142580000Y-74290000D02*
X142580000Y-76000000D01*
X136117300Y-80500000D02*
X120422700Y-80500000D01*
X113960000Y-74290000D02*
X113960000Y-76000000D01*
X117578000Y-76000000D02*
X113960000Y-76000000D01*
X113960000Y-68780000D02*
X117578000Y-68780000D01*
X113960000Y-70490000D02*
X113960000Y-68780000D01*
X120422700Y-64280000D02*
X124410000Y-64280000D01*
X126610000Y-66480000D02*
X124410000Y-64280000D01*
X126610000Y-66480000D02*
X129930000Y-66480000D01*
X129930000Y-66480000D02*
X132130000Y-64280000D01*
X132130000Y-64280000D02*
X136117300Y-64280000D01*
X138962000Y-68780000D02*
X142580000Y-68780000D01*
X142580000Y-70490000D02*
X142580000Y-68780000D01*
X136115370Y-80501789D02*
G75*
G03*
X138962000Y-76000000I-7845370J8111789D01*
G01*
X120424630Y-64278211D02*
G75*
G03*
X117578000Y-68780000I7845370J-8111789D01*
G01*
X120424630Y-80501789D02*
G75*
G02*
X117578000Y-76000000I7845370J8111789D01*
G01*
X136115370Y-64278211D02*
G75*
G02*
X138962000Y-68780000I-7845370J-8111789D01*
G01*
%TO.C,BZ1*%
X140950000Y-100320000D02*
G75*
G03*
X140950000Y-100320000I-7600000J0D01*
G01*
%TO.C,Q1*%
X131740000Y-90300000D02*
X130360000Y-90300000D01*
X128660000Y-90300000D02*
X127200000Y-90300000D01*
X128760000Y-87760000D02*
X129940000Y-87760000D01*
X127200000Y-90300000D02*
X127200000Y-87760000D01*
X127200000Y-87760000D02*
X127770000Y-87760000D01*
X128660000Y-90300000D02*
G75*
G03*
X129610000Y-91050000I850000J100000D01*
G01*
X129410000Y-91050000D02*
G75*
G03*
X130360000Y-90300000I100000J850000D01*
G01*
%TO.C,Q2*%
D10*
X115474761Y-97317619D02*
X115379523Y-97270000D01*
X115284285Y-97174761D01*
X115141428Y-97031904D01*
X115046190Y-96984285D01*
X114950952Y-96984285D01*
X114998571Y-97222380D02*
X114903333Y-97174761D01*
X114808095Y-97079523D01*
X114760476Y-96889047D01*
X114760476Y-96555714D01*
X114808095Y-96365238D01*
X114903333Y-96270000D01*
X114998571Y-96222380D01*
X115189047Y-96222380D01*
X115284285Y-96270000D01*
X115379523Y-96365238D01*
X115427142Y-96555714D01*
X115427142Y-96889047D01*
X115379523Y-97079523D01*
X115284285Y-97174761D01*
X115189047Y-97222380D01*
X114998571Y-97222380D01*
X115808095Y-96317619D02*
X115855714Y-96270000D01*
X115950952Y-96222380D01*
X116189047Y-96222380D01*
X116284285Y-96270000D01*
X116331904Y-96317619D01*
X116379523Y-96412857D01*
X116379523Y-96508095D01*
X116331904Y-96650952D01*
X115760476Y-97222380D01*
X116379523Y-97222380D01*
%TO.C,BT1*%
X115498571Y-79525714D02*
X115546190Y-79382857D01*
X115593809Y-79335238D01*
X115689047Y-79287619D01*
X115831904Y-79287619D01*
X115927142Y-79335238D01*
X115974761Y-79382857D01*
X116022380Y-79478095D01*
X116022380Y-79859047D01*
X115022380Y-79859047D01*
X115022380Y-79525714D01*
X115070000Y-79430476D01*
X115117619Y-79382857D01*
X115212857Y-79335238D01*
X115308095Y-79335238D01*
X115403333Y-79382857D01*
X115450952Y-79430476D01*
X115498571Y-79525714D01*
X115498571Y-79859047D01*
X115022380Y-79001904D02*
X115022380Y-78430476D01*
X116022380Y-78716190D02*
X115022380Y-78716190D01*
X116022380Y-77573333D02*
X116022380Y-78144761D01*
X116022380Y-77859047D02*
X115022380Y-77859047D01*
X115165238Y-77954285D01*
X115260476Y-78049523D01*
X115308095Y-78144761D01*
%TO.C,BZ1*%
X142168571Y-101210952D02*
X142216190Y-101068095D01*
X142263809Y-101020476D01*
X142359047Y-100972857D01*
X142501904Y-100972857D01*
X142597142Y-101020476D01*
X142644761Y-101068095D01*
X142692380Y-101163333D01*
X142692380Y-101544285D01*
X141692380Y-101544285D01*
X141692380Y-101210952D01*
X141740000Y-101115714D01*
X141787619Y-101068095D01*
X141882857Y-101020476D01*
X141978095Y-101020476D01*
X142073333Y-101068095D01*
X142120952Y-101115714D01*
X142168571Y-101210952D01*
X142168571Y-101544285D01*
X141692380Y-100639523D02*
X141692380Y-99972857D01*
X142692380Y-100639523D01*
X142692380Y-99972857D01*
X142692380Y-99068095D02*
X142692380Y-99639523D01*
X142692380Y-99353809D02*
X141692380Y-99353809D01*
X141835238Y-99449047D01*
X141930476Y-99544285D01*
X141978095Y-99639523D01*
X135961428Y-96890952D02*
X135961428Y-96129047D01*
X136342380Y-96510000D02*
X135580476Y-96510000D01*
%TO.C,Q1*%
X133897619Y-88995238D02*
X133850000Y-89090476D01*
X133754761Y-89185714D01*
X133611904Y-89328571D01*
X133564285Y-89423809D01*
X133564285Y-89519047D01*
X133802380Y-89471428D02*
X133754761Y-89566666D01*
X133659523Y-89661904D01*
X133469047Y-89709523D01*
X133135714Y-89709523D01*
X132945238Y-89661904D01*
X132850000Y-89566666D01*
X132802380Y-89471428D01*
X132802380Y-89280952D01*
X132850000Y-89185714D01*
X132945238Y-89090476D01*
X133135714Y-89042857D01*
X133469047Y-89042857D01*
X133659523Y-89090476D01*
X133754761Y-89185714D01*
X133802380Y-89280952D01*
X133802380Y-89471428D01*
X133802380Y-88090476D02*
X133802380Y-88661904D01*
X133802380Y-88376190D02*
X132802380Y-88376190D01*
X132945238Y-88471428D01*
X133040476Y-88566666D01*
X133088095Y-88661904D01*
%TD*%
M02*
