%TF.GenerationSoftware,KiCad,Pcbnew,(5.1.7)-1*%
%TF.CreationDate,2020-12-06T23:47:07-03:00*%
%TF.ProjectId,Emisor,456d6973-6f72-42e6-9b69-6361645f7063,rev?*%
%TF.SameCoordinates,Original*%
%TF.FileFunction,Legend,Bot*%
%TF.FilePolarity,Positive*%
%FSLAX46Y46*%
G04 Gerber Fmt 4.6, Leading zero omitted, Abs format (unit mm)*
G04 Created by KiCad (PCBNEW (5.1.7)-1) date 2020-12-06 23:47:07*
%MOMM*%
%LPD*%
G01*
G04 APERTURE LIST*
%ADD10C,0.300000*%
G04 APERTURE END LIST*
D10*
X108296160Y-62944285D02*
X108408065Y-63039523D01*
X108719970Y-63134761D01*
X108919970Y-63134761D01*
X109208065Y-63039523D01*
X109384255Y-62849047D01*
X109460446Y-62658571D01*
X109512827Y-62277619D01*
X109477113Y-61991904D01*
X109329494Y-61610952D01*
X109205684Y-61420476D01*
X108981875Y-61230000D01*
X108669970Y-61134761D01*
X108469970Y-61134761D01*
X108181875Y-61230000D01*
X108093779Y-61325238D01*
X106519970Y-63134761D02*
X106389017Y-62087142D01*
X106465208Y-61896666D01*
X106653303Y-61801428D01*
X107053303Y-61801428D01*
X107265208Y-61896666D01*
X106508065Y-63039523D02*
X106719970Y-63134761D01*
X107219970Y-63134761D01*
X107408065Y-63039523D01*
X107484255Y-62849047D01*
X107460446Y-62658571D01*
X107336636Y-62468095D01*
X107124732Y-62372857D01*
X106624732Y-62372857D01*
X106412827Y-62277619D01*
X105353303Y-61801428D02*
X105519970Y-63134761D01*
X105377113Y-61991904D02*
X105265208Y-61896666D01*
X105053303Y-61801428D01*
X104753303Y-61801428D01*
X104565208Y-61896666D01*
X104489017Y-62087142D01*
X104619970Y-63134761D01*
X103258065Y-61039523D02*
X103593779Y-61325238D01*
X102953303Y-61801428D02*
X102153303Y-61801428D01*
X102569970Y-61134761D02*
X102784255Y-62849047D01*
X102708065Y-63039523D01*
X102519970Y-63134761D01*
X102319970Y-63134761D01*
X100153303Y-61801428D02*
X99353303Y-61801428D01*
X99769970Y-61134761D02*
X99984255Y-62849047D01*
X99908065Y-63039523D01*
X99719970Y-63134761D01*
X99519970Y-63134761D01*
X98519970Y-63134761D02*
X98708065Y-63039523D01*
X98796160Y-62944285D01*
X98872351Y-62753809D01*
X98800922Y-62182380D01*
X98677113Y-61991904D01*
X98565208Y-61896666D01*
X98353303Y-61801428D01*
X98053303Y-61801428D01*
X97865208Y-61896666D01*
X97777113Y-61991904D01*
X97700922Y-62182380D01*
X97772351Y-62753809D01*
X97896160Y-62944285D01*
X98008065Y-63039523D01*
X98219970Y-63134761D01*
X98519970Y-63134761D01*
X95853303Y-61801428D02*
X96019970Y-63134761D01*
X96753303Y-61801428D02*
X96884255Y-62849047D01*
X96808065Y-63039523D01*
X96619970Y-63134761D01*
X96319970Y-63134761D01*
X96108065Y-63039523D01*
X95996160Y-62944285D01*
X94108065Y-63039523D02*
X94319970Y-63134761D01*
X94719970Y-63134761D01*
X94908065Y-63039523D01*
X94996160Y-62944285D01*
X95072351Y-62753809D01*
X95000922Y-62182380D01*
X94877113Y-61991904D01*
X94765208Y-61896666D01*
X94553303Y-61801428D01*
X94153303Y-61801428D01*
X93965208Y-61896666D01*
X93219970Y-63134761D02*
X92969970Y-61134761D01*
X92319970Y-63134761D02*
X92189017Y-62087142D01*
X92265208Y-61896666D01*
X92453303Y-61801428D01*
X92753303Y-61801428D01*
X92965208Y-61896666D01*
X93077113Y-61991904D01*
X89853303Y-61801428D02*
X89053303Y-61801428D01*
X89469970Y-61134761D02*
X89684255Y-62849047D01*
X89608065Y-63039523D01*
X89419970Y-63134761D01*
X89219970Y-63134761D01*
X88519970Y-63134761D02*
X88269970Y-61134761D01*
X87619970Y-63134761D02*
X87489017Y-62087142D01*
X87565208Y-61896666D01*
X87753303Y-61801428D01*
X88053303Y-61801428D01*
X88265208Y-61896666D01*
X88377113Y-61991904D01*
X86619970Y-63134761D02*
X86453303Y-61801428D01*
X86369970Y-61134761D02*
X86481875Y-61230000D01*
X86393779Y-61325238D01*
X86281875Y-61230000D01*
X86369970Y-61134761D01*
X86393779Y-61325238D01*
X85708065Y-63039523D02*
X85519970Y-63134761D01*
X85119970Y-63134761D01*
X84908065Y-63039523D01*
X84784255Y-62849047D01*
X84772351Y-62753809D01*
X84848541Y-62563333D01*
X85036636Y-62468095D01*
X85336636Y-62468095D01*
X85524732Y-62372857D01*
X85600922Y-62182380D01*
X85589017Y-62087142D01*
X85465208Y-61896666D01*
X85253303Y-61801428D01*
X84953303Y-61801428D01*
X84765208Y-61896666D01*
X83896160Y-62944285D02*
X83808065Y-63039523D01*
X83919970Y-63134761D01*
X84008065Y-63039523D01*
X83896160Y-62944285D01*
X83919970Y-63134761D01*
X83824732Y-62372857D02*
X83781875Y-61230000D01*
X83669970Y-61134761D01*
X83581875Y-61230000D01*
X83824732Y-62372857D01*
X83669970Y-61134761D01*
M02*
