%TF.GenerationSoftware,KiCad,Pcbnew,(5.1.7)-1*%
%TF.CreationDate,2020-12-06T23:47:07-03:00*%
%TF.ProjectId,Emisor,456d6973-6f72-42e6-9b69-6361645f7063,rev?*%
%TF.SameCoordinates,Original*%
%TF.FileFunction,Copper,L2,Bot*%
%TF.FilePolarity,Positive*%
%FSLAX46Y46*%
G04 Gerber Fmt 4.6, Leading zero omitted, Abs format (unit mm)*
G04 Created by KiCad (PCBNEW (5.1.7)-1) date 2020-12-06 23:47:07*
%MOMM*%
%LPD*%
G01*
G04 APERTURE LIST*
%TA.AperFunction,ComponentPad*%
%ADD10C,1.800000*%
%TD*%
%TA.AperFunction,ComponentPad*%
%ADD11R,1.800000X1.800000*%
%TD*%
%TA.AperFunction,ComponentPad*%
%ADD12O,1.600000X1.600000*%
%TD*%
%TA.AperFunction,ComponentPad*%
%ADD13R,1.600000X1.600000*%
%TD*%
%TA.AperFunction,Conductor*%
%ADD14C,0.500000*%
%TD*%
%TA.AperFunction,Conductor*%
%ADD15C,0.250000*%
%TD*%
%TA.AperFunction,Conductor*%
%ADD16C,0.254000*%
%TD*%
%TA.AperFunction,Conductor*%
%ADD17C,0.100000*%
%TD*%
G04 APERTURE END LIST*
D10*
%TO.P,D2,2*%
%TO.N,Net-(BT1-Pad1)*%
X118110000Y-69850000D03*
D11*
%TO.P,D2,1*%
%TO.N,Net-(D1-Pad1)*%
X118110000Y-72390000D03*
%TD*%
D10*
%TO.P,D1,2*%
%TO.N,Net-(BT1-Pad1)*%
X76200000Y-71120000D03*
D11*
%TO.P,D1,1*%
%TO.N,Net-(D1-Pad1)*%
X73660000Y-71120000D03*
%TD*%
D12*
%TO.P,SW1,2*%
%TO.N,Net-(BT1-Pad2)*%
X83820000Y-80010000D03*
D13*
%TO.P,SW1,1*%
%TO.N,Net-(D1-Pad1)*%
X76200000Y-80010000D03*
%TD*%
D14*
%TO.N,Net-(BT1-Pad1)*%
X77470000Y-69850000D02*
X118110000Y-69850000D01*
X76200000Y-71120000D02*
X77470000Y-69850000D01*
D15*
%TO.N,Net-(D1-Pad1)*%
X83820000Y-72390000D02*
X76200000Y-80010000D01*
X118110000Y-72390000D02*
X83820000Y-72390000D01*
%TD*%
D16*
%TO.N,Net-(BT1-Pad2)*%
X121260001Y-84430000D02*
X70510000Y-84430000D01*
X70510000Y-70220000D01*
X72121928Y-70220000D01*
X72121928Y-72020000D01*
X72134188Y-72144482D01*
X72170498Y-72264180D01*
X72229463Y-72374494D01*
X72308815Y-72471185D01*
X72405506Y-72550537D01*
X72515820Y-72609502D01*
X72635518Y-72645812D01*
X72760000Y-72658072D01*
X74560000Y-72658072D01*
X74684482Y-72645812D01*
X74804180Y-72609502D01*
X74914494Y-72550537D01*
X75011185Y-72471185D01*
X75090537Y-72374494D01*
X75149502Y-72264180D01*
X75155056Y-72245873D01*
X75221495Y-72312312D01*
X75472905Y-72480299D01*
X75752257Y-72596011D01*
X76048816Y-72655000D01*
X76351184Y-72655000D01*
X76647743Y-72596011D01*
X76927095Y-72480299D01*
X77178505Y-72312312D01*
X77392312Y-72098505D01*
X77560299Y-71847095D01*
X77676011Y-71567743D01*
X77735000Y-71271184D01*
X77735000Y-70968816D01*
X77713060Y-70858518D01*
X77836579Y-70735000D01*
X116855210Y-70735000D01*
X116917688Y-70828505D01*
X116984127Y-70894944D01*
X116965820Y-70900498D01*
X116855506Y-70959463D01*
X116758815Y-71038815D01*
X116679463Y-71135506D01*
X116620498Y-71245820D01*
X116584188Y-71365518D01*
X116571928Y-71490000D01*
X116571928Y-71630000D01*
X83857322Y-71630000D01*
X83819999Y-71626324D01*
X83782676Y-71630000D01*
X83782667Y-71630000D01*
X83671014Y-71640997D01*
X83527753Y-71684454D01*
X83395724Y-71755026D01*
X83279999Y-71849999D01*
X83256201Y-71878997D01*
X76563271Y-78571928D01*
X75400000Y-78571928D01*
X75275518Y-78584188D01*
X75155820Y-78620498D01*
X75045506Y-78679463D01*
X74948815Y-78758815D01*
X74869463Y-78855506D01*
X74810498Y-78965820D01*
X74774188Y-79085518D01*
X74761928Y-79210000D01*
X74761928Y-80810000D01*
X74774188Y-80934482D01*
X74810498Y-81054180D01*
X74869463Y-81164494D01*
X74948815Y-81261185D01*
X75045506Y-81340537D01*
X75155820Y-81399502D01*
X75275518Y-81435812D01*
X75400000Y-81448072D01*
X77000000Y-81448072D01*
X77124482Y-81435812D01*
X77244180Y-81399502D01*
X77354494Y-81340537D01*
X77451185Y-81261185D01*
X77530537Y-81164494D01*
X77589502Y-81054180D01*
X77625812Y-80934482D01*
X77638072Y-80810000D01*
X77638072Y-80359039D01*
X82428096Y-80359039D01*
X82468754Y-80493087D01*
X82588963Y-80747420D01*
X82756481Y-80973414D01*
X82964869Y-81162385D01*
X83206119Y-81307070D01*
X83470960Y-81401909D01*
X83693000Y-81280624D01*
X83693000Y-80137000D01*
X83947000Y-80137000D01*
X83947000Y-81280624D01*
X84169040Y-81401909D01*
X84433881Y-81307070D01*
X84675131Y-81162385D01*
X84883519Y-80973414D01*
X85051037Y-80747420D01*
X85171246Y-80493087D01*
X85211904Y-80359039D01*
X85089915Y-80137000D01*
X83947000Y-80137000D01*
X83693000Y-80137000D01*
X82550085Y-80137000D01*
X82428096Y-80359039D01*
X77638072Y-80359039D01*
X77638072Y-79660961D01*
X82428096Y-79660961D01*
X82550085Y-79883000D01*
X83693000Y-79883000D01*
X83693000Y-78739376D01*
X83947000Y-78739376D01*
X83947000Y-79883000D01*
X85089915Y-79883000D01*
X85211904Y-79660961D01*
X85171246Y-79526913D01*
X85051037Y-79272580D01*
X84883519Y-79046586D01*
X84675131Y-78857615D01*
X84433881Y-78712930D01*
X84169040Y-78618091D01*
X83947000Y-78739376D01*
X83693000Y-78739376D01*
X83470960Y-78618091D01*
X83206119Y-78712930D01*
X82964869Y-78857615D01*
X82756481Y-79046586D01*
X82588963Y-79272580D01*
X82468754Y-79526913D01*
X82428096Y-79660961D01*
X77638072Y-79660961D01*
X77638072Y-79646729D01*
X84134802Y-73150000D01*
X116571928Y-73150000D01*
X116571928Y-73290000D01*
X116584188Y-73414482D01*
X116620498Y-73534180D01*
X116679463Y-73644494D01*
X116758815Y-73741185D01*
X116855506Y-73820537D01*
X116965820Y-73879502D01*
X117085518Y-73915812D01*
X117210000Y-73928072D01*
X119010000Y-73928072D01*
X119134482Y-73915812D01*
X119254180Y-73879502D01*
X119364494Y-73820537D01*
X119461185Y-73741185D01*
X119540537Y-73644494D01*
X119599502Y-73534180D01*
X119635812Y-73414482D01*
X119648072Y-73290000D01*
X119648072Y-71490000D01*
X119635812Y-71365518D01*
X119599502Y-71245820D01*
X119540537Y-71135506D01*
X119461185Y-71038815D01*
X119364494Y-70959463D01*
X119254180Y-70900498D01*
X119235873Y-70894944D01*
X119302312Y-70828505D01*
X119470299Y-70577095D01*
X119586011Y-70297743D01*
X119645000Y-70001184D01*
X119645000Y-69698816D01*
X119586011Y-69402257D01*
X119470299Y-69122905D01*
X119302312Y-68871495D01*
X119088505Y-68657688D01*
X118837095Y-68489701D01*
X118557743Y-68373989D01*
X118261184Y-68315000D01*
X117958816Y-68315000D01*
X117662257Y-68373989D01*
X117382905Y-68489701D01*
X117131495Y-68657688D01*
X116917688Y-68871495D01*
X116855210Y-68965000D01*
X77513465Y-68965000D01*
X77469999Y-68960719D01*
X77426533Y-68965000D01*
X77426523Y-68965000D01*
X77296510Y-68977805D01*
X77129687Y-69028411D01*
X76975941Y-69110589D01*
X76975939Y-69110590D01*
X76975940Y-69110590D01*
X76874953Y-69193468D01*
X76874951Y-69193470D01*
X76841183Y-69221183D01*
X76813470Y-69254951D01*
X76461482Y-69606940D01*
X76351184Y-69585000D01*
X76048816Y-69585000D01*
X75752257Y-69643989D01*
X75472905Y-69759701D01*
X75221495Y-69927688D01*
X75155056Y-69994127D01*
X75149502Y-69975820D01*
X75090537Y-69865506D01*
X75011185Y-69768815D01*
X74914494Y-69689463D01*
X74804180Y-69630498D01*
X74684482Y-69594188D01*
X74560000Y-69581928D01*
X72760000Y-69581928D01*
X72635518Y-69594188D01*
X72515820Y-69630498D01*
X72405506Y-69689463D01*
X72308815Y-69768815D01*
X72229463Y-69865506D01*
X72170498Y-69975820D01*
X72134188Y-70095518D01*
X72121928Y-70220000D01*
X70510000Y-70220000D01*
X70510000Y-59080000D01*
X121260000Y-59080000D01*
X121260001Y-84430000D01*
%TA.AperFunction,Conductor*%
D17*
G36*
X121260001Y-84430000D02*
G01*
X70510000Y-84430000D01*
X70510000Y-70220000D01*
X72121928Y-70220000D01*
X72121928Y-72020000D01*
X72134188Y-72144482D01*
X72170498Y-72264180D01*
X72229463Y-72374494D01*
X72308815Y-72471185D01*
X72405506Y-72550537D01*
X72515820Y-72609502D01*
X72635518Y-72645812D01*
X72760000Y-72658072D01*
X74560000Y-72658072D01*
X74684482Y-72645812D01*
X74804180Y-72609502D01*
X74914494Y-72550537D01*
X75011185Y-72471185D01*
X75090537Y-72374494D01*
X75149502Y-72264180D01*
X75155056Y-72245873D01*
X75221495Y-72312312D01*
X75472905Y-72480299D01*
X75752257Y-72596011D01*
X76048816Y-72655000D01*
X76351184Y-72655000D01*
X76647743Y-72596011D01*
X76927095Y-72480299D01*
X77178505Y-72312312D01*
X77392312Y-72098505D01*
X77560299Y-71847095D01*
X77676011Y-71567743D01*
X77735000Y-71271184D01*
X77735000Y-70968816D01*
X77713060Y-70858518D01*
X77836579Y-70735000D01*
X116855210Y-70735000D01*
X116917688Y-70828505D01*
X116984127Y-70894944D01*
X116965820Y-70900498D01*
X116855506Y-70959463D01*
X116758815Y-71038815D01*
X116679463Y-71135506D01*
X116620498Y-71245820D01*
X116584188Y-71365518D01*
X116571928Y-71490000D01*
X116571928Y-71630000D01*
X83857322Y-71630000D01*
X83819999Y-71626324D01*
X83782676Y-71630000D01*
X83782667Y-71630000D01*
X83671014Y-71640997D01*
X83527753Y-71684454D01*
X83395724Y-71755026D01*
X83279999Y-71849999D01*
X83256201Y-71878997D01*
X76563271Y-78571928D01*
X75400000Y-78571928D01*
X75275518Y-78584188D01*
X75155820Y-78620498D01*
X75045506Y-78679463D01*
X74948815Y-78758815D01*
X74869463Y-78855506D01*
X74810498Y-78965820D01*
X74774188Y-79085518D01*
X74761928Y-79210000D01*
X74761928Y-80810000D01*
X74774188Y-80934482D01*
X74810498Y-81054180D01*
X74869463Y-81164494D01*
X74948815Y-81261185D01*
X75045506Y-81340537D01*
X75155820Y-81399502D01*
X75275518Y-81435812D01*
X75400000Y-81448072D01*
X77000000Y-81448072D01*
X77124482Y-81435812D01*
X77244180Y-81399502D01*
X77354494Y-81340537D01*
X77451185Y-81261185D01*
X77530537Y-81164494D01*
X77589502Y-81054180D01*
X77625812Y-80934482D01*
X77638072Y-80810000D01*
X77638072Y-80359039D01*
X82428096Y-80359039D01*
X82468754Y-80493087D01*
X82588963Y-80747420D01*
X82756481Y-80973414D01*
X82964869Y-81162385D01*
X83206119Y-81307070D01*
X83470960Y-81401909D01*
X83693000Y-81280624D01*
X83693000Y-80137000D01*
X83947000Y-80137000D01*
X83947000Y-81280624D01*
X84169040Y-81401909D01*
X84433881Y-81307070D01*
X84675131Y-81162385D01*
X84883519Y-80973414D01*
X85051037Y-80747420D01*
X85171246Y-80493087D01*
X85211904Y-80359039D01*
X85089915Y-80137000D01*
X83947000Y-80137000D01*
X83693000Y-80137000D01*
X82550085Y-80137000D01*
X82428096Y-80359039D01*
X77638072Y-80359039D01*
X77638072Y-79660961D01*
X82428096Y-79660961D01*
X82550085Y-79883000D01*
X83693000Y-79883000D01*
X83693000Y-78739376D01*
X83947000Y-78739376D01*
X83947000Y-79883000D01*
X85089915Y-79883000D01*
X85211904Y-79660961D01*
X85171246Y-79526913D01*
X85051037Y-79272580D01*
X84883519Y-79046586D01*
X84675131Y-78857615D01*
X84433881Y-78712930D01*
X84169040Y-78618091D01*
X83947000Y-78739376D01*
X83693000Y-78739376D01*
X83470960Y-78618091D01*
X83206119Y-78712930D01*
X82964869Y-78857615D01*
X82756481Y-79046586D01*
X82588963Y-79272580D01*
X82468754Y-79526913D01*
X82428096Y-79660961D01*
X77638072Y-79660961D01*
X77638072Y-79646729D01*
X84134802Y-73150000D01*
X116571928Y-73150000D01*
X116571928Y-73290000D01*
X116584188Y-73414482D01*
X116620498Y-73534180D01*
X116679463Y-73644494D01*
X116758815Y-73741185D01*
X116855506Y-73820537D01*
X116965820Y-73879502D01*
X117085518Y-73915812D01*
X117210000Y-73928072D01*
X119010000Y-73928072D01*
X119134482Y-73915812D01*
X119254180Y-73879502D01*
X119364494Y-73820537D01*
X119461185Y-73741185D01*
X119540537Y-73644494D01*
X119599502Y-73534180D01*
X119635812Y-73414482D01*
X119648072Y-73290000D01*
X119648072Y-71490000D01*
X119635812Y-71365518D01*
X119599502Y-71245820D01*
X119540537Y-71135506D01*
X119461185Y-71038815D01*
X119364494Y-70959463D01*
X119254180Y-70900498D01*
X119235873Y-70894944D01*
X119302312Y-70828505D01*
X119470299Y-70577095D01*
X119586011Y-70297743D01*
X119645000Y-70001184D01*
X119645000Y-69698816D01*
X119586011Y-69402257D01*
X119470299Y-69122905D01*
X119302312Y-68871495D01*
X119088505Y-68657688D01*
X118837095Y-68489701D01*
X118557743Y-68373989D01*
X118261184Y-68315000D01*
X117958816Y-68315000D01*
X117662257Y-68373989D01*
X117382905Y-68489701D01*
X117131495Y-68657688D01*
X116917688Y-68871495D01*
X116855210Y-68965000D01*
X77513465Y-68965000D01*
X77469999Y-68960719D01*
X77426533Y-68965000D01*
X77426523Y-68965000D01*
X77296510Y-68977805D01*
X77129687Y-69028411D01*
X76975941Y-69110589D01*
X76975939Y-69110590D01*
X76975940Y-69110590D01*
X76874953Y-69193468D01*
X76874951Y-69193470D01*
X76841183Y-69221183D01*
X76813470Y-69254951D01*
X76461482Y-69606940D01*
X76351184Y-69585000D01*
X76048816Y-69585000D01*
X75752257Y-69643989D01*
X75472905Y-69759701D01*
X75221495Y-69927688D01*
X75155056Y-69994127D01*
X75149502Y-69975820D01*
X75090537Y-69865506D01*
X75011185Y-69768815D01*
X74914494Y-69689463D01*
X74804180Y-69630498D01*
X74684482Y-69594188D01*
X74560000Y-69581928D01*
X72760000Y-69581928D01*
X72635518Y-69594188D01*
X72515820Y-69630498D01*
X72405506Y-69689463D01*
X72308815Y-69768815D01*
X72229463Y-69865506D01*
X72170498Y-69975820D01*
X72134188Y-70095518D01*
X72121928Y-70220000D01*
X70510000Y-70220000D01*
X70510000Y-59080000D01*
X121260000Y-59080000D01*
X121260001Y-84430000D01*
G37*
%TD.AperFunction*%
%TD*%
M02*
