%TF.GenerationSoftware,KiCad,Pcbnew,(5.1.7)-1*%
%TF.CreationDate,2020-12-06T23:47:07-03:00*%
%TF.ProjectId,Emisor,456d6973-6f72-42e6-9b69-6361645f7063,rev?*%
%TF.SameCoordinates,Original*%
%TF.FileFunction,Copper,L1,Top*%
%TF.FilePolarity,Positive*%
%FSLAX46Y46*%
G04 Gerber Fmt 4.6, Leading zero omitted, Abs format (unit mm)*
G04 Created by KiCad (PCBNEW (5.1.7)-1) date 2020-12-06 23:47:07*
%MOMM*%
%LPD*%
G01*
G04 APERTURE LIST*
%TA.AperFunction,ComponentPad*%
%ADD10C,1.800000*%
%TD*%
%TA.AperFunction,ComponentPad*%
%ADD11R,1.800000X1.800000*%
%TD*%
%TA.AperFunction,SMDPad,CuDef*%
%ADD12R,2.540000X3.510000*%
%TD*%
%TA.AperFunction,ComponentPad*%
%ADD13O,1.600000X1.600000*%
%TD*%
%TA.AperFunction,ComponentPad*%
%ADD14R,1.600000X1.600000*%
%TD*%
%TA.AperFunction,Conductor*%
%ADD15C,0.500000*%
%TD*%
%TA.AperFunction,Conductor*%
%ADD16C,0.250000*%
%TD*%
%TA.AperFunction,Conductor*%
%ADD17C,0.254000*%
%TD*%
%TA.AperFunction,Conductor*%
%ADD18C,0.100000*%
%TD*%
G04 APERTURE END LIST*
D10*
%TO.P,D2,2*%
%TO.N,Net-(BT1-Pad1)*%
X118110000Y-69850000D03*
D11*
%TO.P,D2,1*%
%TO.N,Net-(D1-Pad1)*%
X118110000Y-72390000D03*
%TD*%
D12*
%TO.P,BT1,1*%
%TO.N,Net-(BT1-Pad1)*%
X81840000Y-71120000D03*
%TO.P,BT1,2*%
%TO.N,Net-(BT1-Pad2)*%
X111200000Y-71120000D03*
%TD*%
D10*
%TO.P,D1,2*%
%TO.N,Net-(BT1-Pad1)*%
X76200000Y-71120000D03*
D11*
%TO.P,D1,1*%
%TO.N,Net-(D1-Pad1)*%
X73660000Y-71120000D03*
%TD*%
D13*
%TO.P,SW1,2*%
%TO.N,Net-(BT1-Pad2)*%
X83820000Y-80010000D03*
D14*
%TO.P,SW1,1*%
%TO.N,Net-(D1-Pad1)*%
X76200000Y-80010000D03*
%TD*%
D15*
%TO.N,Net-(BT1-Pad1)*%
X81840000Y-71120000D02*
X76200000Y-71120000D01*
D16*
%TO.N,Net-(D1-Pad1)*%
X73660000Y-77470000D02*
X76200000Y-80010000D01*
X73660000Y-71120000D02*
X73660000Y-77470000D01*
%TD*%
D17*
%TO.N,Net-(BT1-Pad2)*%
X121260001Y-84430000D02*
X70510000Y-84430000D01*
X70510000Y-70220000D01*
X72121928Y-70220000D01*
X72121928Y-72020000D01*
X72134188Y-72144482D01*
X72170498Y-72264180D01*
X72229463Y-72374494D01*
X72308815Y-72471185D01*
X72405506Y-72550537D01*
X72515820Y-72609502D01*
X72635518Y-72645812D01*
X72760000Y-72658072D01*
X72900000Y-72658072D01*
X72900001Y-77432668D01*
X72896324Y-77470000D01*
X72910998Y-77618985D01*
X72954454Y-77762246D01*
X73025026Y-77894276D01*
X73096201Y-77981002D01*
X73120000Y-78010001D01*
X73148998Y-78033799D01*
X74761928Y-79646730D01*
X74761928Y-80810000D01*
X74774188Y-80934482D01*
X74810498Y-81054180D01*
X74869463Y-81164494D01*
X74948815Y-81261185D01*
X75045506Y-81340537D01*
X75155820Y-81399502D01*
X75275518Y-81435812D01*
X75400000Y-81448072D01*
X77000000Y-81448072D01*
X77124482Y-81435812D01*
X77244180Y-81399502D01*
X77354494Y-81340537D01*
X77451185Y-81261185D01*
X77530537Y-81164494D01*
X77589502Y-81054180D01*
X77625812Y-80934482D01*
X77638072Y-80810000D01*
X77638072Y-80359039D01*
X82428096Y-80359039D01*
X82468754Y-80493087D01*
X82588963Y-80747420D01*
X82756481Y-80973414D01*
X82964869Y-81162385D01*
X83206119Y-81307070D01*
X83470960Y-81401909D01*
X83693000Y-81280624D01*
X83693000Y-80137000D01*
X83947000Y-80137000D01*
X83947000Y-81280624D01*
X84169040Y-81401909D01*
X84433881Y-81307070D01*
X84675131Y-81162385D01*
X84883519Y-80973414D01*
X85051037Y-80747420D01*
X85171246Y-80493087D01*
X85211904Y-80359039D01*
X85089915Y-80137000D01*
X83947000Y-80137000D01*
X83693000Y-80137000D01*
X82550085Y-80137000D01*
X82428096Y-80359039D01*
X77638072Y-80359039D01*
X77638072Y-79660961D01*
X82428096Y-79660961D01*
X82550085Y-79883000D01*
X83693000Y-79883000D01*
X83693000Y-78739376D01*
X83947000Y-78739376D01*
X83947000Y-79883000D01*
X85089915Y-79883000D01*
X85211904Y-79660961D01*
X85171246Y-79526913D01*
X85051037Y-79272580D01*
X84883519Y-79046586D01*
X84675131Y-78857615D01*
X84433881Y-78712930D01*
X84169040Y-78618091D01*
X83947000Y-78739376D01*
X83693000Y-78739376D01*
X83470960Y-78618091D01*
X83206119Y-78712930D01*
X82964869Y-78857615D01*
X82756481Y-79046586D01*
X82588963Y-79272580D01*
X82468754Y-79526913D01*
X82428096Y-79660961D01*
X77638072Y-79660961D01*
X77638072Y-79210000D01*
X77625812Y-79085518D01*
X77589502Y-78965820D01*
X77530537Y-78855506D01*
X77451185Y-78758815D01*
X77354494Y-78679463D01*
X77244180Y-78620498D01*
X77124482Y-78584188D01*
X77000000Y-78571928D01*
X75836730Y-78571928D01*
X74420000Y-77155199D01*
X74420000Y-72658072D01*
X74560000Y-72658072D01*
X74684482Y-72645812D01*
X74804180Y-72609502D01*
X74914494Y-72550537D01*
X75011185Y-72471185D01*
X75090537Y-72374494D01*
X75149502Y-72264180D01*
X75155056Y-72245873D01*
X75221495Y-72312312D01*
X75472905Y-72480299D01*
X75752257Y-72596011D01*
X76048816Y-72655000D01*
X76351184Y-72655000D01*
X76647743Y-72596011D01*
X76927095Y-72480299D01*
X77178505Y-72312312D01*
X77392312Y-72098505D01*
X77454790Y-72005000D01*
X79931928Y-72005000D01*
X79931928Y-72875000D01*
X79944188Y-72999482D01*
X79980498Y-73119180D01*
X80039463Y-73229494D01*
X80118815Y-73326185D01*
X80215506Y-73405537D01*
X80325820Y-73464502D01*
X80445518Y-73500812D01*
X80570000Y-73513072D01*
X83110000Y-73513072D01*
X83234482Y-73500812D01*
X83354180Y-73464502D01*
X83464494Y-73405537D01*
X83561185Y-73326185D01*
X83640537Y-73229494D01*
X83699502Y-73119180D01*
X83735812Y-72999482D01*
X83748072Y-72875000D01*
X109291928Y-72875000D01*
X109304188Y-72999482D01*
X109340498Y-73119180D01*
X109399463Y-73229494D01*
X109478815Y-73326185D01*
X109575506Y-73405537D01*
X109685820Y-73464502D01*
X109805518Y-73500812D01*
X109930000Y-73513072D01*
X110914250Y-73510000D01*
X111073000Y-73351250D01*
X111073000Y-71247000D01*
X111327000Y-71247000D01*
X111327000Y-73351250D01*
X111485750Y-73510000D01*
X112470000Y-73513072D01*
X112594482Y-73500812D01*
X112714180Y-73464502D01*
X112824494Y-73405537D01*
X112921185Y-73326185D01*
X113000537Y-73229494D01*
X113059502Y-73119180D01*
X113095812Y-72999482D01*
X113108072Y-72875000D01*
X113105177Y-71490000D01*
X116571928Y-71490000D01*
X116571928Y-73290000D01*
X116584188Y-73414482D01*
X116620498Y-73534180D01*
X116679463Y-73644494D01*
X116758815Y-73741185D01*
X116855506Y-73820537D01*
X116965820Y-73879502D01*
X117085518Y-73915812D01*
X117210000Y-73928072D01*
X119010000Y-73928072D01*
X119134482Y-73915812D01*
X119254180Y-73879502D01*
X119364494Y-73820537D01*
X119461185Y-73741185D01*
X119540537Y-73644494D01*
X119599502Y-73534180D01*
X119635812Y-73414482D01*
X119648072Y-73290000D01*
X119648072Y-71490000D01*
X119635812Y-71365518D01*
X119599502Y-71245820D01*
X119540537Y-71135506D01*
X119461185Y-71038815D01*
X119364494Y-70959463D01*
X119254180Y-70900498D01*
X119235873Y-70894944D01*
X119302312Y-70828505D01*
X119470299Y-70577095D01*
X119586011Y-70297743D01*
X119645000Y-70001184D01*
X119645000Y-69698816D01*
X119586011Y-69402257D01*
X119470299Y-69122905D01*
X119302312Y-68871495D01*
X119088505Y-68657688D01*
X118837095Y-68489701D01*
X118557743Y-68373989D01*
X118261184Y-68315000D01*
X117958816Y-68315000D01*
X117662257Y-68373989D01*
X117382905Y-68489701D01*
X117131495Y-68657688D01*
X116917688Y-68871495D01*
X116749701Y-69122905D01*
X116633989Y-69402257D01*
X116575000Y-69698816D01*
X116575000Y-70001184D01*
X116633989Y-70297743D01*
X116749701Y-70577095D01*
X116917688Y-70828505D01*
X116984127Y-70894944D01*
X116965820Y-70900498D01*
X116855506Y-70959463D01*
X116758815Y-71038815D01*
X116679463Y-71135506D01*
X116620498Y-71245820D01*
X116584188Y-71365518D01*
X116571928Y-71490000D01*
X113105177Y-71490000D01*
X113105000Y-71405750D01*
X112946250Y-71247000D01*
X111327000Y-71247000D01*
X111073000Y-71247000D01*
X109453750Y-71247000D01*
X109295000Y-71405750D01*
X109291928Y-72875000D01*
X83748072Y-72875000D01*
X83748072Y-69365000D01*
X109291928Y-69365000D01*
X109295000Y-70834250D01*
X109453750Y-70993000D01*
X111073000Y-70993000D01*
X111073000Y-68888750D01*
X111327000Y-68888750D01*
X111327000Y-70993000D01*
X112946250Y-70993000D01*
X113105000Y-70834250D01*
X113108072Y-69365000D01*
X113095812Y-69240518D01*
X113059502Y-69120820D01*
X113000537Y-69010506D01*
X112921185Y-68913815D01*
X112824494Y-68834463D01*
X112714180Y-68775498D01*
X112594482Y-68739188D01*
X112470000Y-68726928D01*
X111485750Y-68730000D01*
X111327000Y-68888750D01*
X111073000Y-68888750D01*
X110914250Y-68730000D01*
X109930000Y-68726928D01*
X109805518Y-68739188D01*
X109685820Y-68775498D01*
X109575506Y-68834463D01*
X109478815Y-68913815D01*
X109399463Y-69010506D01*
X109340498Y-69120820D01*
X109304188Y-69240518D01*
X109291928Y-69365000D01*
X83748072Y-69365000D01*
X83735812Y-69240518D01*
X83699502Y-69120820D01*
X83640537Y-69010506D01*
X83561185Y-68913815D01*
X83464494Y-68834463D01*
X83354180Y-68775498D01*
X83234482Y-68739188D01*
X83110000Y-68726928D01*
X80570000Y-68726928D01*
X80445518Y-68739188D01*
X80325820Y-68775498D01*
X80215506Y-68834463D01*
X80118815Y-68913815D01*
X80039463Y-69010506D01*
X79980498Y-69120820D01*
X79944188Y-69240518D01*
X79931928Y-69365000D01*
X79931928Y-70235000D01*
X77454790Y-70235000D01*
X77392312Y-70141495D01*
X77178505Y-69927688D01*
X76927095Y-69759701D01*
X76647743Y-69643989D01*
X76351184Y-69585000D01*
X76048816Y-69585000D01*
X75752257Y-69643989D01*
X75472905Y-69759701D01*
X75221495Y-69927688D01*
X75155056Y-69994127D01*
X75149502Y-69975820D01*
X75090537Y-69865506D01*
X75011185Y-69768815D01*
X74914494Y-69689463D01*
X74804180Y-69630498D01*
X74684482Y-69594188D01*
X74560000Y-69581928D01*
X72760000Y-69581928D01*
X72635518Y-69594188D01*
X72515820Y-69630498D01*
X72405506Y-69689463D01*
X72308815Y-69768815D01*
X72229463Y-69865506D01*
X72170498Y-69975820D01*
X72134188Y-70095518D01*
X72121928Y-70220000D01*
X70510000Y-70220000D01*
X70510000Y-59080000D01*
X121260000Y-59080000D01*
X121260001Y-84430000D01*
%TA.AperFunction,Conductor*%
D18*
G36*
X121260001Y-84430000D02*
G01*
X70510000Y-84430000D01*
X70510000Y-70220000D01*
X72121928Y-70220000D01*
X72121928Y-72020000D01*
X72134188Y-72144482D01*
X72170498Y-72264180D01*
X72229463Y-72374494D01*
X72308815Y-72471185D01*
X72405506Y-72550537D01*
X72515820Y-72609502D01*
X72635518Y-72645812D01*
X72760000Y-72658072D01*
X72900000Y-72658072D01*
X72900001Y-77432668D01*
X72896324Y-77470000D01*
X72910998Y-77618985D01*
X72954454Y-77762246D01*
X73025026Y-77894276D01*
X73096201Y-77981002D01*
X73120000Y-78010001D01*
X73148998Y-78033799D01*
X74761928Y-79646730D01*
X74761928Y-80810000D01*
X74774188Y-80934482D01*
X74810498Y-81054180D01*
X74869463Y-81164494D01*
X74948815Y-81261185D01*
X75045506Y-81340537D01*
X75155820Y-81399502D01*
X75275518Y-81435812D01*
X75400000Y-81448072D01*
X77000000Y-81448072D01*
X77124482Y-81435812D01*
X77244180Y-81399502D01*
X77354494Y-81340537D01*
X77451185Y-81261185D01*
X77530537Y-81164494D01*
X77589502Y-81054180D01*
X77625812Y-80934482D01*
X77638072Y-80810000D01*
X77638072Y-80359039D01*
X82428096Y-80359039D01*
X82468754Y-80493087D01*
X82588963Y-80747420D01*
X82756481Y-80973414D01*
X82964869Y-81162385D01*
X83206119Y-81307070D01*
X83470960Y-81401909D01*
X83693000Y-81280624D01*
X83693000Y-80137000D01*
X83947000Y-80137000D01*
X83947000Y-81280624D01*
X84169040Y-81401909D01*
X84433881Y-81307070D01*
X84675131Y-81162385D01*
X84883519Y-80973414D01*
X85051037Y-80747420D01*
X85171246Y-80493087D01*
X85211904Y-80359039D01*
X85089915Y-80137000D01*
X83947000Y-80137000D01*
X83693000Y-80137000D01*
X82550085Y-80137000D01*
X82428096Y-80359039D01*
X77638072Y-80359039D01*
X77638072Y-79660961D01*
X82428096Y-79660961D01*
X82550085Y-79883000D01*
X83693000Y-79883000D01*
X83693000Y-78739376D01*
X83947000Y-78739376D01*
X83947000Y-79883000D01*
X85089915Y-79883000D01*
X85211904Y-79660961D01*
X85171246Y-79526913D01*
X85051037Y-79272580D01*
X84883519Y-79046586D01*
X84675131Y-78857615D01*
X84433881Y-78712930D01*
X84169040Y-78618091D01*
X83947000Y-78739376D01*
X83693000Y-78739376D01*
X83470960Y-78618091D01*
X83206119Y-78712930D01*
X82964869Y-78857615D01*
X82756481Y-79046586D01*
X82588963Y-79272580D01*
X82468754Y-79526913D01*
X82428096Y-79660961D01*
X77638072Y-79660961D01*
X77638072Y-79210000D01*
X77625812Y-79085518D01*
X77589502Y-78965820D01*
X77530537Y-78855506D01*
X77451185Y-78758815D01*
X77354494Y-78679463D01*
X77244180Y-78620498D01*
X77124482Y-78584188D01*
X77000000Y-78571928D01*
X75836730Y-78571928D01*
X74420000Y-77155199D01*
X74420000Y-72658072D01*
X74560000Y-72658072D01*
X74684482Y-72645812D01*
X74804180Y-72609502D01*
X74914494Y-72550537D01*
X75011185Y-72471185D01*
X75090537Y-72374494D01*
X75149502Y-72264180D01*
X75155056Y-72245873D01*
X75221495Y-72312312D01*
X75472905Y-72480299D01*
X75752257Y-72596011D01*
X76048816Y-72655000D01*
X76351184Y-72655000D01*
X76647743Y-72596011D01*
X76927095Y-72480299D01*
X77178505Y-72312312D01*
X77392312Y-72098505D01*
X77454790Y-72005000D01*
X79931928Y-72005000D01*
X79931928Y-72875000D01*
X79944188Y-72999482D01*
X79980498Y-73119180D01*
X80039463Y-73229494D01*
X80118815Y-73326185D01*
X80215506Y-73405537D01*
X80325820Y-73464502D01*
X80445518Y-73500812D01*
X80570000Y-73513072D01*
X83110000Y-73513072D01*
X83234482Y-73500812D01*
X83354180Y-73464502D01*
X83464494Y-73405537D01*
X83561185Y-73326185D01*
X83640537Y-73229494D01*
X83699502Y-73119180D01*
X83735812Y-72999482D01*
X83748072Y-72875000D01*
X109291928Y-72875000D01*
X109304188Y-72999482D01*
X109340498Y-73119180D01*
X109399463Y-73229494D01*
X109478815Y-73326185D01*
X109575506Y-73405537D01*
X109685820Y-73464502D01*
X109805518Y-73500812D01*
X109930000Y-73513072D01*
X110914250Y-73510000D01*
X111073000Y-73351250D01*
X111073000Y-71247000D01*
X111327000Y-71247000D01*
X111327000Y-73351250D01*
X111485750Y-73510000D01*
X112470000Y-73513072D01*
X112594482Y-73500812D01*
X112714180Y-73464502D01*
X112824494Y-73405537D01*
X112921185Y-73326185D01*
X113000537Y-73229494D01*
X113059502Y-73119180D01*
X113095812Y-72999482D01*
X113108072Y-72875000D01*
X113105177Y-71490000D01*
X116571928Y-71490000D01*
X116571928Y-73290000D01*
X116584188Y-73414482D01*
X116620498Y-73534180D01*
X116679463Y-73644494D01*
X116758815Y-73741185D01*
X116855506Y-73820537D01*
X116965820Y-73879502D01*
X117085518Y-73915812D01*
X117210000Y-73928072D01*
X119010000Y-73928072D01*
X119134482Y-73915812D01*
X119254180Y-73879502D01*
X119364494Y-73820537D01*
X119461185Y-73741185D01*
X119540537Y-73644494D01*
X119599502Y-73534180D01*
X119635812Y-73414482D01*
X119648072Y-73290000D01*
X119648072Y-71490000D01*
X119635812Y-71365518D01*
X119599502Y-71245820D01*
X119540537Y-71135506D01*
X119461185Y-71038815D01*
X119364494Y-70959463D01*
X119254180Y-70900498D01*
X119235873Y-70894944D01*
X119302312Y-70828505D01*
X119470299Y-70577095D01*
X119586011Y-70297743D01*
X119645000Y-70001184D01*
X119645000Y-69698816D01*
X119586011Y-69402257D01*
X119470299Y-69122905D01*
X119302312Y-68871495D01*
X119088505Y-68657688D01*
X118837095Y-68489701D01*
X118557743Y-68373989D01*
X118261184Y-68315000D01*
X117958816Y-68315000D01*
X117662257Y-68373989D01*
X117382905Y-68489701D01*
X117131495Y-68657688D01*
X116917688Y-68871495D01*
X116749701Y-69122905D01*
X116633989Y-69402257D01*
X116575000Y-69698816D01*
X116575000Y-70001184D01*
X116633989Y-70297743D01*
X116749701Y-70577095D01*
X116917688Y-70828505D01*
X116984127Y-70894944D01*
X116965820Y-70900498D01*
X116855506Y-70959463D01*
X116758815Y-71038815D01*
X116679463Y-71135506D01*
X116620498Y-71245820D01*
X116584188Y-71365518D01*
X116571928Y-71490000D01*
X113105177Y-71490000D01*
X113105000Y-71405750D01*
X112946250Y-71247000D01*
X111327000Y-71247000D01*
X111073000Y-71247000D01*
X109453750Y-71247000D01*
X109295000Y-71405750D01*
X109291928Y-72875000D01*
X83748072Y-72875000D01*
X83748072Y-69365000D01*
X109291928Y-69365000D01*
X109295000Y-70834250D01*
X109453750Y-70993000D01*
X111073000Y-70993000D01*
X111073000Y-68888750D01*
X111327000Y-68888750D01*
X111327000Y-70993000D01*
X112946250Y-70993000D01*
X113105000Y-70834250D01*
X113108072Y-69365000D01*
X113095812Y-69240518D01*
X113059502Y-69120820D01*
X113000537Y-69010506D01*
X112921185Y-68913815D01*
X112824494Y-68834463D01*
X112714180Y-68775498D01*
X112594482Y-68739188D01*
X112470000Y-68726928D01*
X111485750Y-68730000D01*
X111327000Y-68888750D01*
X111073000Y-68888750D01*
X110914250Y-68730000D01*
X109930000Y-68726928D01*
X109805518Y-68739188D01*
X109685820Y-68775498D01*
X109575506Y-68834463D01*
X109478815Y-68913815D01*
X109399463Y-69010506D01*
X109340498Y-69120820D01*
X109304188Y-69240518D01*
X109291928Y-69365000D01*
X83748072Y-69365000D01*
X83735812Y-69240518D01*
X83699502Y-69120820D01*
X83640537Y-69010506D01*
X83561185Y-68913815D01*
X83464494Y-68834463D01*
X83354180Y-68775498D01*
X83234482Y-68739188D01*
X83110000Y-68726928D01*
X80570000Y-68726928D01*
X80445518Y-68739188D01*
X80325820Y-68775498D01*
X80215506Y-68834463D01*
X80118815Y-68913815D01*
X80039463Y-69010506D01*
X79980498Y-69120820D01*
X79944188Y-69240518D01*
X79931928Y-69365000D01*
X79931928Y-70235000D01*
X77454790Y-70235000D01*
X77392312Y-70141495D01*
X77178505Y-69927688D01*
X76927095Y-69759701D01*
X76647743Y-69643989D01*
X76351184Y-69585000D01*
X76048816Y-69585000D01*
X75752257Y-69643989D01*
X75472905Y-69759701D01*
X75221495Y-69927688D01*
X75155056Y-69994127D01*
X75149502Y-69975820D01*
X75090537Y-69865506D01*
X75011185Y-69768815D01*
X74914494Y-69689463D01*
X74804180Y-69630498D01*
X74684482Y-69594188D01*
X74560000Y-69581928D01*
X72760000Y-69581928D01*
X72635518Y-69594188D01*
X72515820Y-69630498D01*
X72405506Y-69689463D01*
X72308815Y-69768815D01*
X72229463Y-69865506D01*
X72170498Y-69975820D01*
X72134188Y-70095518D01*
X72121928Y-70220000D01*
X70510000Y-70220000D01*
X70510000Y-59080000D01*
X121260000Y-59080000D01*
X121260001Y-84430000D01*
G37*
%TD.AperFunction*%
%TD*%
M02*
